Coordinates
version=1
nRows=14
nColumns=40
inDegrees=yes

Units are S.I. units (second, meters, Newtons, ...)
Angles are in degrees.

endheader
time	pelvis_tilt	pelvis_list	pelvis_rotation	pelvis_tx	pelvis_ty	pelvis_tz	hip_flexion_r	hip_adduction_r	hip_rotation_r	knee_angle_r	knee_angle_r_beta	ankle_angle_r	subtalar_angle_r	mtp_angle_r	hip_flexion_l	hip_adduction_l	hip_rotation_l	knee_angle_l	knee_angle_l_beta	ankle_angle_l	subtalar_angle_l	mtp_angle_l	lumbar_extension	lumbar_bending	lumbar_rotation	arm_flex_r	arm_add_r	arm_rot_r	elbow_flex_r	pro_sup_r	wrist_flex_r	wrist_dev_r	arm_flex_l	arm_add_l	arm_rot_l	elbow_flex_l	pro_sup_l	wrist_flex_l	wrist_dev_l
     56.53228571	     -3.43875054	     -3.94166897	     -9.11234805	      1.02520206	      0.93157907	      0.39048191	     21.06636302	     -3.80043991	     -6.97965478	     16.43840747	     16.43840747	      2.55328653	      9.31812414	      3.80490435	      6.15601525	     -3.06430221	    -13.26762724	     17.23264736	     17.23264736	     15.60117337	    -11.95108020	     -2.76923529	     -8.70830499	      4.89315946	      2.56909690	    -19.14368522	    -11.01382829	     -0.69037579	     30.83594920	     46.16266414	      0.00000000	      0.00000000	     34.03640549	    -18.00513228	     -9.49464639	     67.70467672	     47.97618582	      0.00000000	      0.00000000
     56.55457143	     -3.51343533	     -3.62085128	     -9.14699646	      1.02594808	      0.93127706	      0.39301042	     20.37938863	     -3.84563916	     -7.35112966	     15.39531387	     15.39531387	      2.61114762	      9.94779314	      3.56161158	      5.34222308	     -2.78647969	    -13.78851331	     16.19358603	     16.19358603	     15.51950295	    -11.00424020	     -3.29020189	     -8.57027729	      4.63367559	      2.72607131	    -19.17254238	    -10.86107356	     -0.45522973	     30.77231308	     46.14541072	      0.00000000	      0.00000000	     34.56211569	    -17.71418859	     -9.94199271	     68.72477993	     48.02214631	      0.00000000	      0.00000000
     56.57685714	     -3.78980993	     -3.41766858	     -9.11098009	      1.02657269	      0.93043514	      0.39578724	     20.20571347	     -3.77624828	     -7.50271215	     15.17134616	     15.17134616	      3.13950627	      9.88032988	      3.38213517	      5.17220849	     -2.73496641	    -13.85691667	     15.99155141	     15.99155141	     15.67787993	    -10.91423207	     -3.37765978	     -8.18051416	      4.58573079	      2.71251804	    -19.09094634	    -10.85475580	     -0.44088547	     30.80154289	     46.14363961	      0.00000000	      0.00000000	     34.85929138	    -17.71926386	     -9.99711425	     68.92454213	     48.03104484	      0.00000000	      0.00000000
     56.59914286	     -3.80527185	     -3.15138863	     -9.04348746	      1.02787366	      0.93042017	      0.39873454	     19.26988504	     -3.76331675	     -7.56434535	     14.11755593	     14.11755593	      2.40490311	      9.88791745	      0.12183839	      3.92245646	     -2.47792927	    -14.56196000	     14.23837644	     14.23837644	     14.82862092	     -9.51069281	     -5.51630947	     -8.16739445	      4.32098986	      2.29881310	    -18.64535210	    -11.01547054	      0.48217163	     30.62146069	     46.07818307	      0.00000000	      0.00000000	     34.39753491	    -17.28461146	    -12.24149809	     71.59904542	     48.19631755	      0.00000000	      0.00000000
     56.62142857	     -3.93091980	     -2.96674227	     -8.93184429	      1.02899114	      0.93021771	      0.40192024	     18.87643605	     -3.71678595	     -7.48209557	     14.02993929	     14.02993929	      2.93595574	      9.53457452	     -0.37472617	      3.19070746	     -2.35316257	    -14.64773120	     13.29239581	     13.29239581	     14.76087791	     -8.89720977	     -5.47155312	     -8.01420657	      4.20716063	      2.44615121	    -18.60498833	    -11.10456465	      0.64838295	     30.56313317	     46.06774590	      0.00000000	      0.00000000	     34.63249593	    -17.02472935	    -12.30617453	     72.04860982	     48.20422639	      0.00000000	      0.00000000
     56.64371429	     -4.09055323	     -2.91594595	     -8.73613501	      1.03011527	      0.92996601	      0.40535267	     18.49193530	     -3.50582355	     -7.25157365	     13.92521478	     13.92521478	      2.98486772	      8.70002375	     -2.14720075	      2.59902153	     -2.43731529	    -14.72276838	     12.56428844	     12.56428844	     14.63865551	     -8.36630249	     -5.86838430	     -7.90499952	      4.23897266	      2.25188012	    -18.37919219	    -11.37318592	      1.22582514	     30.59933392	     46.02098803	      0.00000000	      0.00000000	     34.46769477	    -16.82674718	    -13.04679808	     73.09176714	     48.24598671	      0.00000000	      0.00000000
     56.66600000	     -4.24705016	     -2.88821742	     -8.51078528	      1.03124359	      0.92979723	      0.40904753	     18.33378952	     -3.33385391	     -7.15569061	     14.30322013	     14.30322013	      3.61828259	      8.11588942	     -2.57303344	      2.03600124	     -2.56365666	    -14.69275482	     11.90718307	     11.90718307	     14.62571255	     -7.88503439	     -5.76959352	     -7.80352308	      4.26116697	      2.29404241	    -18.32211937	    -11.56082804	      1.30774840	     30.59834658	     46.01483149	      0.00000000	      0.00000000	     34.52294409	    -16.63480701	    -13.08816587	     73.34830228	     48.24866705	      0.00000000	      0.00000000
     56.68828571	     -4.40262780	     -2.96558634	     -8.22819594	      1.03233536	      0.92970571	      0.41301911	     18.17999720	     -3.04509035	     -7.05062894	     14.68595999	     14.68595999	      4.17531490	      7.47556124	     -2.91747552	      1.59083300	     -2.86581948	    -14.56668657	     11.49139858	     11.49139858	     14.63983328	     -7.52242097	     -5.69095034	     -7.71320050	      4.38736258	      2.27778528	    -18.27040592	    -11.75892411	      1.34491416	     30.61867638	     46.01117734	      0.00000000	      0.00000000	     34.51360048	    -16.45284590	    -13.13265510	     73.57443801	     48.25225285	      0.00000000	      0.00000000
     56.71057143	     -4.53699670	     -3.03130437	     -7.90316459	      1.03347372	      0.92967125	      0.41729062	     18.07104886	     -2.72031351	     -6.75728449	     15.16710991	     15.16710991	      4.69078246	      6.31238656	     -3.25546810	      1.13001965	     -3.18289442	    -14.51636911	     11.07556274	     11.07556274	     14.64853949	     -7.04384246	     -5.55713533	     -7.71203034	      4.42997323	      2.24676207	    -18.22586142	    -11.97290953	      1.42864402	     30.68875230	     46.00145625	      0.00000000	      0.00000000	     34.38225349	    -16.27017346	    -13.24133870	     73.91326021	     48.25900773	      0.00000000	      0.00000000
     56.73285714	     -4.68705649	     -3.20963693	     -7.48382442	      1.03460976	      0.92967999	      0.42170627	     17.89296929	     -2.34080499	     -6.94919162	     15.50829324	     15.50829324	      5.14904862	      5.87153065	     -3.46934578	      0.84165791	     -3.68002449	    -14.26189234	     10.95438914	     10.95438914	     14.64245513	     -6.82250455	     -5.49052347	     -7.66443852	      4.58341326	      2.16296524	    -18.20906723	    -12.16524444	      1.42568184	     30.68977854	     46.00157281	      0.00000000	      0.00000000	     34.21642368	    -16.07262689	    -13.18527437	     73.93968130	     48.25317671	      0.00000000	      0.00000000
     56.75514286	     -4.80355129	     -3.37748851	     -7.05938788	      1.03577516	      0.92972088	      0.42633817	     17.72752376	     -1.95144136	     -7.07766608	     15.90848502	     15.90848502	      5.65048073	      5.32387439	     -3.67638905	      0.53064215	     -4.18653315	    -14.04638154	     10.84573235	     10.84573235	     14.63035516	     -6.57639343	     -5.40773992	     -7.67944824	      4.69907872	      2.07861257	    -18.21730429	    -12.33256949	      1.42690157	     30.68763732	     46.00130497	      0.00000000	      0.00000000	     33.93780975	    -15.85274932	    -13.10392660	     73.92484391	     48.24420764	      0.00000000	      0.00000000
     56.77742857	     -4.89219237	     -3.48743833	     -6.69008207	      1.03700889	      0.92979476	      0.43133411	     17.62485303	     -1.49964632	     -6.65169158	     16.42341417	     16.42341417	      6.08425923	      3.83857306	     -3.67079667	      0.22595168	     -4.69096115	    -14.15580622	     10.82818573	     10.82818573	     14.73942552	     -5.95282165	     -5.17286232	     -7.68252175	      4.69513784	      2.07031784	    -18.18437611	    -12.51346418	      1.52756905	     30.78027438	     45.98942953	      0.00000000	      0.00000000	     33.49967655	    -15.81376131	    -12.97091360	     74.01419881	     48.22888971	      0.00000000	      0.00000000
     56.79971429	     -4.99450811	     -3.66746851	     -6.22829668	      1.03828385	      0.92992271	      0.43628100	     17.36025649	     -1.07439419	     -6.91823584	     16.64670849	     16.64670849	      6.51860038	      3.47847747	     -3.80359925	     -0.00781645	     -5.26999503	    -13.91504550	     10.87513234	     10.87513234	     14.68519176	     -5.69889958	     -5.06268019	     -7.67615421	      4.78607084	      1.99802469	    -18.18654404	    -12.62713106	      1.54396588	     30.77676614	     45.98820312	      0.00000000	      0.00000000	     32.92418856	    -15.48746215	    -12.80668143	     73.86737116	     48.20980599	      0.00000000	      0.00000000
     56.82200000	     -5.06977409	     -3.83678008	     -5.78871305	      1.03967046	      0.93008521	      0.44138132	     17.05089158	     -0.63811638	     -7.17236343	     16.84012107	     16.84012107	      6.92495757	      3.08136902	     -3.89615003	     -0.24289730	     -5.86073813	    -13.74956222	     10.98345811	     10.98345811	     14.65098361	     -5.41805900	     -4.92488861	     -7.64492597	      4.85070697	      1.99629308	    -18.13266952	    -12.75808776	      1.56174174	     30.78499806	     45.98686901	      0.00000000	      0.00000000	     32.17765150	    -15.18465495	    -12.61096251	     73.64226979	     48.18590778	      0.00000000	      0.00000000
